<svg xmlns="http://www.w3.org/2000/svg" fill="none" viewBox="0 0 3500 3000" width="3500" height="3000"><defs><clipPath id="assetClipPath_F1E5MwGV"><path d="m0 0 h 1860.969 v 1456.356 h -1860.969 v -1456.356 z" fill="#ffffff"/></clipPath><clipPath id="assetClipPath_tkeXUvsi"><path d="m0 0 h 1375.86 v 786.544 h -1375.86 v -786.544 z" fill="#ffffff"/></clipPath><clipPath id="assetClipPath_BtT1Z_cx"><path d="m0 0 h 2705 v 85 h -2705 v -85 z" fill="#ffffff"/></clipPath><clipPath id="assetClipPath_kDUQusUu"><path d="m0 0 h 1446.517 v 1530.097 h -1446.517 v -1530.097 z" fill="#ffffff"/></clipPath></defs><g transform="translate(397 924)"><g clip-path="url(#assetClipPath_F1E5MwGV)" transform="scale(1.0032407847739537 1.0032407847739537)"><path d="m1610.395 988.768s60.95-1.445 89.886 22.79c26.304 22.032 26.4 69.352 13.179 90.902-13.502 22.008-36.618 35.496-59.91 40.309-32.201 6.654-51.085-17.535-51.085-27.872-.001-30.632 44.093-38.875 46.948-45.444 0 0-.77-21.055-26.938-21.055" fill="#EEE5C1"/><path d="m1642.74 1146.41c-14.56 0-24.653-6.17-29.884-10.431-7.711-6.28-12.892-14.752-12.893-21.082 0-23.266 23.44-34.368 37.446-41.001 3.671-1.739 8.158-3.864 9.436-5.111-.432-3.542-3.474-17.887-24.371-17.887-1.381 0-2.5-1.119-2.5-2.5s1.119-2.5 2.5-2.5c28.251 0 29.428 23.229 29.437 23.464.014.374-.057.745-.206 1.088-1.208 2.78-5.329 4.731-12.155 7.965-13.773 6.523-34.587 16.381-34.586 36.482 0 4.077 3.796 11.296 11.05 17.205 5.804 4.728 18.333 12.081 37.029 8.219 24.93-5.151 46.174-19.427 58.285-39.168 12.579-20.503 12.808-66.353-12.654-87.678-27.87-23.345-87.621-22.226-88.221-22.208-1.384.044-2.526-1.06-2.558-2.44-.033-1.38 1.06-2.526 2.44-2.559 2.525-.057 62.229-1.186 91.55 23.374 12.448 10.426 20.366 27.228 22.295 47.309 1.681 17.501-1.611 35.44-8.59 46.816-12.83 20.913-35.259 36.021-61.535 41.45-4.028.832-7.802 1.191-11.315 1.191z" fill="#111111"/><path d="m1651.549 968.871s37.53-3.12 80.363 18.595c42.689 21.643 45.874 77 38.842 105.164-8.59 34.403-35.584 45.717-63.57 48.87-22.525 2.538-67.303-8.878-59.311-40.501 6.03-23.859 41.069-19.388 48.488-29.247 12.017-15.968-18.228-33.864-37.469-33.864" fill="#EEE5C1"/><path d="m1701.033 1144.318c-15.543 0-38.313-5.091-49.681-18.112-6.396-7.325-8.381-16.011-5.903-25.818 4.14-16.377 20.33-20.479 33.339-23.775 6.855-1.737 13.329-3.377 15.575-6.362 2.623-3.484 2.944-7.088.983-11.018-4.746-9.51-22.803-18.843-36.455-18.843-1.381 0-2.5-1.119-2.5-2.5s1.119-2.5 2.5-2.5c14.23 0 34.757 9.242 40.929 21.611 2.81 5.631 2.304 11.252-1.462 16.257-3.305 4.392-10.273 6.157-18.342 8.202-12.333 3.125-26.31 6.666-29.719 20.154-2.052 8.121-.43 15.289 4.821 21.304 11.894 13.623 37.931 17.664 51.786 16.1 34.404-3.876 54.497-19.247 61.425-46.991 7.137-28.585 3.255-81.644-37.547-102.329-41.718-21.151-78.656-18.364-79.025-18.334-1.377.111-2.584-.908-2.698-2.284-.115-1.376.908-2.584 2.284-2.698 1.562-.13 38.73-2.929 81.7 18.856 43.393 22 47.647 77.92 40.137 108-7.494 30.011-28.99 46.611-65.716 50.749-1.939.218-4.105.333-6.43.333z" fill="#111111"/><path d="m1708.378 1055.785c21.882 3.886 52.617 53.32 73.831 78.985 19.433 23.51 44.17 35.032 67.249 19.909 12.614-8.266 11.038-27.342 1.122-46.794-29.028-56.943-92.983-157.703-135.387-174.145-42.199-16.363-244.339 14.465-275.125 42.977-22.413 20.758-12.683 75.789 5.388 107.55" fill="#EEE5C1"/><path d="m1827.605 1164.028c-15.813 0-32.231-9.407-47.323-27.665-5.27-6.375-11.08-14.148-17.23-22.378-17.642-23.605-39.598-52.983-55.111-55.738-1.359-.241-2.266-1.539-2.024-2.898s1.535-2.27 2.898-2.024c17.46 3.101 39.126 32.091 58.242 57.668 6.113 8.179 11.887 15.904 17.079 22.186 20.894 25.276 44.203 32.352 63.952 19.411 12.421-8.14 8.281-27.843.265-43.568-31.913-62.603-94.604-157.649-134.063-172.95-41.806-16.21-243.016 15.153-272.522 42.479-21.741 20.136-11.239 74.423 5.862 104.48.683 1.2.264 2.727-.937 3.409-1.201.683-2.727.264-3.409-.937-9.517-16.727-16.317-38.748-18.191-58.906-2.176-23.403 2.539-41.769 13.278-51.714 17.353-16.072 83.353-31.028 134.599-38.953 51.046-7.894 119.161-13.813 143.128-4.521 42.974 16.664 106.661 116.393 136.71 175.341 11.484 22.528 10.726 41.695-1.979 50.021-7.42 4.862-15.246 7.258-23.223 7.258z" fill="#111111"/><path d="m1445.456 1084.266c17.562 31.748 65.953 48.934 115.248 40.435 39.645-6.835 67.199-26.041 84.845-31.931 42.337-14.132 68.965-17.865 84.938-33.494 25.594-25.042 8.205-51.24-23.674-51.24-19.049 0-64.485 11.746-94.713 14.957-17.872 1.898-44.948.285-59.986 3.377" fill="#EEE5C1"/><path d="m1535.572 1129.358c-40.649 0-77.265-16.696-92.303-43.882-.668-1.208-.231-2.729.978-3.397 1.208-.669 2.73-.23 3.397.978 17.148 31 64.517 47.48 112.636 39.181 26.706-4.604 47.55-14.748 64.298-22.898 7.738-3.766 14.421-7.018 20.18-8.94 11.734-3.917 22.328-7.056 31.675-9.826 24.803-7.35 41.189-12.205 52.306-23.083 10.192-9.973 13.878-20.987 10.113-30.22-4.146-10.165-16.722-16.733-32.038-16.733-10.117 0-28.178 3.453-47.3 7.109-16.346 3.125-33.248 6.357-47.149 7.833-7.752.824-17.301.997-26.535 1.165-12.208.222-24.831.452-33.211 2.175-1.35.28-2.674-.593-2.952-1.945s.593-2.674 1.945-2.952c8.833-1.816 21.692-2.05 34.127-2.276 9.126-.166 18.564-.337 26.098-1.138 13.695-1.455 30.493-4.667 46.738-7.773 19.361-3.702 37.648-7.198 48.239-7.198 17.625 0 31.675 7.604 36.668 19.845 4.572 11.21.473 24.216-11.246 35.683-12.004 11.746-29.78 17.013-54.383 24.303-9.308 2.758-19.858 5.885-31.512 9.775-5.448 1.818-11.995 5.004-19.575 8.693-16.134 7.852-38.231 18.605-65.637 23.33-8.585 1.48-17.161 2.193-25.557 2.193z" fill="#111111"/><path d="m824.758 699.57c43.034 4.53 89.184 49.182 109.685 124.883 16.247 59.993 68.918 264.659 68.918 308.918 26.379-17.114 302.772-262.893 422.618-213.839 81.025 33.164 124.435 213.515 77.4 278.175-63.016 86.63-474.316 254.382-614.978 197.439-91.394-36.998-197.731-358.84-193.39-407.499" fill="#40CFB7"/><path d="m961.632 1409.224c-30 0-54.809-3.923-74.168-11.76-53.723-21.749-106.996-135.107-133.97-200.744-38.563-93.839-63.084-185.617-60.972-209.295.123-1.375 1.333-2.396 2.712-2.268 1.375.123 2.391 1.337 2.268 2.712-2.061 23.103 22.327 113.776 60.617 206.95 20.497 49.876 42.287 93.639 63.014 126.557 24.583 39.042 47.532 63.083 68.207 71.452 61.104 24.736 186.274 7.945 334.83-44.918 130.45-46.419 247.024-110.208 277.188-151.675 11.27-15.494 17.765-38.812 18.781-67.433.968-27.255-2.991-57.403-11.448-87.185-17.21-60.602-48.484-105.377-83.657-119.773-43.109-17.643-112.452 1.873-206.104 58.007-76.718 45.984-149.478 104.316-188.567 135.654-13.106 10.507-21.764 17.448-25.639 19.962-.769.499-1.749.537-2.554.1s-1.307-1.28-1.307-2.197c0-44.914-54.292-254.576-68.832-308.265-21.516-79.448-69.511-119.048-107.533-123.05-1.373-.145-2.369-1.375-2.225-2.748s1.378-2.37 2.748-2.225c22.331 2.351 45.369 15.33 64.871 36.547 20.91 22.749 37.15 53.929 46.965 90.169 14.12 52.138 65.636 251.092 68.848 304.828 4.676-3.511 12.122-9.48 21.529-17.022 39.182-31.412 112.115-89.882 189.125-136.042 95.077-56.988 165.924-76.619 210.568-58.346 36.583 14.974 68.947 60.968 86.573 123.035 18.337 64.57 15.158 126.952-8.099 158.924-31.186 42.872-146.143 105.971-279.555 153.444-68.409 24.343-134.282 41.754-190.496 50.352-27.255 4.168-51.865 6.25-73.718 6.25z" fill="#111111"/><path d="m1003.361 1133.371c-20.915 18.277-38.101 38.511-52.803 61.467" fill="#40CFB7"/><path d="m950.556 1197.338c-.461 0-.928-.128-1.346-.395-1.163-.745-1.502-2.291-.757-3.454 15.127-23.619 32.55-43.899 53.264-62.001 1.04-.909 2.619-.803 3.527.237.909 1.04.802 2.619-.237 3.527-20.353 17.787-37.475 37.718-52.343 60.933-.478.745-1.284 1.152-2.108 1.152z" fill="#111111"/><path d="m715.835 462.426-.076-.333c-2.079-8.768-1.155-17.971 2.616-26.15 3.771-8.169 10.18-14.846 18.198-18.948 84.888-43.159 133.681-139.111 114.734-236.693-24.073-123.98-147.991-202.566-269.187-170.696-42.221 11.066-80.07 34.704-108.541 67.78-48.349 56.051-113.081 95.132-185.297 110.471-1.794.382-3.597.78-5.39 1.193-197.561 45.095-319.397 246.43-269.015 444.345 48.701 191.295 240.47 309.724 432.236 265.276 194.362-45.053 315.121-240.364 269.722-436.245z" fill="#D05F3B"/><path d="m364.557 910.544c-66.288.002-131.557-18.335-189.521-53.978-81.747-50.267-139.842-129.305-163.582-222.554-12.459-48.942-14.79-98.861-6.927-148.37 7.585-47.76 24.256-92.964 49.551-134.354 25.021-40.943 57.153-75.966 95.502-104.096 39.762-29.166 84.427-49.547 132.756-60.579 1.802-.415 3.618-.816 5.425-1.201 71.554-15.198 135.153-53.117 183.925-109.659 28.932-33.612 66.901-57.322 109.8-68.565 29.759-7.825 60.168-9.284 90.378-4.334 29.085 4.766 56.611 15.21 81.813 31.043 25.47 16.002 47.082 36.569 64.235 61.129 17.813 25.506 29.875 54.038 35.848 84.801 9.326 48.032 2.88 96.559-18.64 140.335-20.936 42.587-55.532 77.769-97.416 99.063-7.478 3.825-13.539 10.136-17.061 17.767-3.521 7.637-4.393 16.347-2.453 24.525l.079.349c11.172 48.203 12.642 97.139 4.369 145.448-7.991 46.661-24.689 90.773-49.629 131.111-24.941 40.34-56.87 74.874-94.898 102.643-39.375 28.75-83.595 48.951-131.435 60.041-27.247 6.315-54.774 9.437-82.12 9.438zm272.683-905.619c-18.148 0-36.421 2.348-54.485 7.098-41.916 10.986-79.013 34.151-107.282 66.993-24.345 28.223-52.71 52.116-84.31 71.017-31.87 19.062-66.309 32.61-102.363 40.268-1.779.379-3.569.774-5.349 1.184-94.318 21.529-174.262 79.207-225.108 162.409-51.458 84.204-66.389 183.247-42.044 278.885 41.349 162.416 189.4 272.542 349.912 272.545 26.252 0 52.829-2.944 79.336-9.088 192.708-44.669 312.866-239.022 267.851-433.245l-.078-.343c-2.19-9.238-1.204-19.102 2.783-27.75 3.99-8.644 10.854-15.791 19.33-20.127 85.128-43.281 131.765-139.5 113.419-233.991-11.41-58.761-47.069-110.755-97.835-142.649-34.941-21.952-74.055-33.205-113.777-33.205z" fill="#111111"/><path d="m843.607 972.697c4.159 170.034 2.687 313.545-77.163 363.961-71.615 45.216-217.68 30.455-329.368-7.549-75.431-25.667-146.683-109.149-152.662-195.738-4.181-60.56 32.588-204.189 83.562-286.232 35.897-57.777 154.419-192.609 154.419-192.609 17.155-24.779 64.633-104.887 180.138-85.207 131.71 32.753 143.596 105.126 136.603 151.479" fill="#40CFB7"/><path d="m640.1 1367.179c-67.122 0-142.381-14.794-203.83-35.703-37.881-12.89-74.646-39.818-103.521-75.826-29.917-37.307-47.969-80.672-50.83-122.107-2.089-30.251 5.831-81.058 21.184-135.906 16.698-59.649 38.982-113.566 62.748-151.818 35.158-56.587 150.599-188.306 154.569-192.831.835-1.208 1.741-2.545 2.724-3.995 9.371-13.826 26.813-39.562 55.419-58.881 34.874-23.552 76.725-31.375 124.388-23.254.062.01.123.023.184.038 58.997 14.671 99.975 38.789 121.795 71.684 15.751 23.746 21.362 51.534 16.677 82.594-.206 1.365-1.476 2.307-2.845 2.099-1.365-.206-2.305-1.48-2.099-2.845 7.638-50.629-9.527-117.513-134.644-148.657-108.043-18.362-154.778 50.582-174.736 80.027-1.025 1.512-1.968 2.903-2.833 4.154-.055.079-.114.155-.178.228-1.184 1.347-118.796 135.336-154.174 192.277-49.852 80.237-87.411 223.631-83.191 284.74 5.637 81.641 71.952 166.656 150.973 193.544 106.278 36.163 254.01 54.03 327.229 7.802 77.404-48.872 80.281-186.691 75.999-361.786-.034-1.38 1.058-2.526 2.438-2.56 1.381-.032 2.526 1.058 2.56 2.438 4.322 176.701 1.299 315.862-78.327 366.136-31.907 20.145-77.521 28.407-127.679 28.407z" fill="#111111"/><path d="m803.309 571.676-22.538 73.7s-98.884 29.94-141.242-42.394l33.198-110.205" fill="#EEE5C1"/><path d="m734.458 654.021c-2.789 0-5.642-.068-8.553-.219-40.154-2.083-70.768-19.219-88.533-49.556-.352-.6-.437-1.319-.236-1.984l33.197-110.205c.398-1.322 1.791-2.07 3.115-1.673 1.322.398 2.071 1.793 1.672 3.115l-32.88 109.154c17.148 28.595 45.329 44.118 83.782 46.148 25.479 1.344 47.368-4.008 52.758-5.462l22.138-72.393c.404-1.32 1.801-2.065 3.122-1.66 1.32.404 2.063 1.801 1.66 3.122l-22.538 73.7c-.244.797-.869 1.42-1.666 1.662-.927.281-20.979 6.251-47.038 6.251z" fill="#111111"/><path d="m991.088 400.186s153.25-97.261 86.76-204.354c-52.86-85.139-138.142-68.014-170.545-24.046 0 0-105.519-121.419-237.305-53.798-125.902 64.6-109.613 175.703-109.613 175.703s206.765 217.802 430.703 106.495z" fill="#D05F3B"/><path d="m857.956 434.352c-9.566 0-19.19-.453-28.873-1.36-45.327-4.247-91.91-18.406-138.458-42.086-79.151-40.266-131.535-94.947-132.054-95.495l-.545-.574-.115-.784c-.169-1.158-4.022-28.769 7.689-64.762 10.789-33.157 37.461-79.768 103.256-113.527 30.468-15.634 62.092-22.494 93.981-20.392 25.49 1.68 51.184 9.059 76.369 21.931 36.064 18.433 60.859 43.114 67.922 50.601 17.961-22.528 48.63-36.18 79.085-34.967 36.712 1.46 70.009 23.328 93.756 61.577 15.516 24.99 20.501 51.549 14.818 78.937-4.519 21.778-15.767 44.076-33.432 66.275-29.917 37.596-68.544 62.325-68.931 62.571l-.227.128c-42.713 21.23-87.753 31.927-134.244 31.927zm-295.192-141.799c5.847 5.98 56.231 56.332 130.261 93.963 72.132 36.667 182.175 68.415 296.828 11.491 2.246-1.449 39.042-25.48 67.664-61.485 39.022-49.088 45.148-95.979 18.207-139.372-22.845-36.796-54.704-57.826-89.707-59.219-29.896-1.192-60.005 12.681-76.702 35.337l-1.851 2.511-2.048-2.354c-.262-.301-26.658-30.332-68.631-51.747-38.545-19.666-98.572-35.884-165.645-1.468-64.165 32.923-90.181 78.202-100.707 110.389-10.353 31.658-8.192 57.238-7.668 61.952z" fill="#111111"/><path d="m971.326 256.948s21.297-19.995 26.867-27.315z" fill="#181718"/><path d="m971.326 259.448c-.667 0-1.331-.265-1.823-.789-.945-1.007-.895-2.589.111-3.534.212-.198 21.208-19.936 26.589-27.006.835-1.099 2.405-1.312 3.503-.476 1.099.836 1.312 2.405.476 3.503-5.631 7.4-26.269 26.801-27.145 27.624-.483.453-1.098.677-1.711.677z" fill="#111111"/><path d="m975.691 252.803s55.399 37.426 17.335 159.373c0 0 56.018-1.145 43.772 32.082-11.631 31.522-58.969 12.31-58.969 12.31s-30.881 136.202-169.748 118.92c-150.414-18.709-167.935-125.059-167.935-125.059s-126.499 32.532-152.687-85.099c-25.04-112.506 158.007-150.107 176.304-20.241-.01.01 156.318 51.339 311.927-92.286z" fill="#EEE5C1"/><path d="m831.717 579.495c-7.775 0-15.759-.508-23.944-1.527-34.626-4.307-65.107-13.636-90.597-27.726-20.454-11.307-37.754-25.686-51.418-42.737-19.394-24.2-25.823-46.571-27.543-54.06-12.048 2.622-63.097 11.598-104.405-13.728-24.859-15.242-41.274-40.087-48.79-73.845-7.184-32.277 1.772-61.292 25.218-81.7 26.178-22.786 65.664-29.921 98.254-17.755 31.359 11.707 51.739 38.927 57.516 76.74 16.059 4.656 162.559 42.037 307.988-92.192.853-.787 2.134-.884 3.095-.234.593.4 14.623 10.095 23.887 35.161 8.287 22.423 14.108 61.994-4.578 123.817 8.87.267 32.301 2.169 41.169 14.615 4.041 5.672 4.571 12.669 1.576 20.798-2.872 7.784-8.01 13.356-15.271 16.563-15.725 6.945-36.876.771-44.306-1.81-2.396 8.824-11.255 37.072-32.572 64.178-14.808 18.829-32.559 33.099-52.76 42.414-18.804 8.67-39.757 13.027-62.519 13.028zm-191.571-131.566c.481 0 .957.139 1.366.406.587.383.987.995 1.101 1.687.043.26 4.618 26.478 27.226 54.581 20.868 25.939 61.845 58.863 138.551 68.404 56.597 7.044 101.868-10.42 134.564-51.903 24.498-31.081 32.36-64.753 32.437-65.09.163-.715.631-1.322 1.281-1.662.649-.34 1.416-.377 2.096-.102.258.104 26.068 10.385 43.095 2.856 5.97-2.64 10.206-7.254 12.59-13.715 2.422-6.572 2.11-11.859-.954-16.163-9.271-13.02-40.112-12.562-40.422-12.555-.84.012-1.566-.356-2.049-.999-.482-.643-.627-1.479-.387-2.246 19.363-62.035 13.842-101.339 5.801-123.387-6.924-18.984-16.853-28.758-20.624-31.961-35.269 32.253-73.457 57.157-113.534 74.033-32.565 13.713-66.438 22.186-100.679 25.182-30.484 2.668-55.624.41-71.346-1.953-13.625-2.048-27.173-5.354-28.297-6.524-.364-.379-.6-.863-.673-1.383-5.176-36.738-24.547-63.137-54.545-74.336-30.926-11.544-68.388-4.776-93.223 16.842-21.999 19.149-30.387 46.438-23.62 76.842 7.207 32.373 22.85 56.143 46.495 70.652 44.332 27.202 102.546 12.719 103.129 12.57.205-.052.414-.078.622-.078z" fill="#111111"/><path d="m860.027 447.931c-.256-12.496-4.205-24.632-11.354-34.871-7.159-10.249-17.184-18.145-28.824-22.691-11.64-4.536-24.359-5.536-36.559-2.846-12.201 2.691-23.335 8.933-31.99 17.95-8.646 9.007-14.437 20.387-16.617 32.687-2.19 12.301-.681 24.978 4.338 36.422 5.018 11.444 13.308 21.138 23.841 27.863 10.523 6.735 22.81 10.185 35.307 9.929 16.747-.342 32.68-7.323 44.275-19.412 11.605-12.089 17.928-28.284 17.586-45.031z" fill="#D05F3B"/><g fill="#111111"><path d="m929.744 540.712c-.461 0-.928-.128-1.346-.395-.448-.287-11.082-7.167-20.427-18.908-12.563-15.784-16.598-32.76-11.669-49.091.399-1.322 1.794-2.071 3.116-1.671 1.322.399 2.07 1.794 1.671 3.116-10.763 35.658 29.599 62.082 30.008 62.345 1.161.746 1.499 2.292.753 3.454-.478.744-1.283 1.151-2.106 1.151z" fill="#111111"/><path d="m627.786 411.403c-1.262 0-2.346-.953-2.483-2.236-.019-.173-1.975-17.608-12.841-40.811-10.013-21.381-29.867-52.192-67.591-77.549-1.146-.77-1.451-2.324-.68-3.469.77-1.146 2.324-1.45 3.469-.68 38.765 26.056 59.151 57.77 69.427 79.786 11.165 23.919 13.11 41.463 13.188 42.198.145 1.373-.851 2.602-2.223 2.747-.089.01-.178.014-.266.014z" fill="#111111"/><path d="m574.674 380.084c-.822 0-1.626-.405-2.104-1.147-.748-1.161-.412-2.708.749-3.455 18.022-11.602 42.764-4.043 43.809-3.715 1.317.413 2.049 1.814 1.637 3.131s-1.816 2.051-3.131 1.64c-.234-.073-23.574-7.174-39.608 3.148-.418.27-.887.398-1.351.398z" fill="#111111"/><path d="m956.755 376.268c-.026-1.289-.436-2.531-1.166-3.589-.74-1.048-1.77-1.864-2.971-2.331-1.191-.468-2.502-.569-3.756-.287-1.254.272-2.393.915-3.29 1.839-.886.934-1.483 2.098-1.703 3.362-.23 1.265-.075 2.571.441 3.751.516 1.171 1.373 2.167 2.451 2.864 1.087.687 2.345 1.045 3.633 1.018 1.722-.035 3.361-.758 4.557-1.993 1.185-1.245 1.84-2.912 1.805-4.634z" fill="#111111"/></g><path d="m1254.936 1405.759c-26.945-25.535-130.071-58.408-190.711-72.889-56.029-13.38-178.647-29.828-195.901-16.742s-42.866 41.303-46.498 65.284c-3.421 22.59 13.981 53.57 52.009 72.209h362.983c20.873 0 35.803-31.102 18.118-47.862z" fill="#EEE5C1"/><path d="m1236.818 1456.121h-362.983c-.381 0-.758-.087-1.1-.255-41.391-20.287-56.686-53.01-53.381-74.829 3.853-25.438 31.155-54.536 47.459-66.901 19.329-14.66 147.004 4.126 197.992 16.302 63.438 15.149 164.9 47.973 191.851 73.506 8.57 8.122 10.952 20.552 6.214 32.438-4.705 11.806-15.174 19.737-26.052 19.738zm-362.4-5h362.4c8.85 0 17.453-6.667 21.407-16.589 4.023-10.095 2.151-20.173-5.009-26.958-25.983-24.625-128.481-57.683-189.572-72.272-61.926-14.788-178.762-28.593-193.81-17.182-15.679 11.891-41.905 39.691-45.537 63.667-3.026 19.984 11.378 50.143 50.12 69.335z" fill="#111111"/><path d="m1205.279 1456.121c-.91 0-1.787-.498-2.229-1.363-.628-1.23-.14-2.736 1.089-3.364 8.794-4.491 14.041-11.842 14.397-20.169.403-9.434-5.453-18.639-16.066-25.256-15.887-9.906-109.788-29.799-152.618-36.384-1.365-.21-2.301-1.486-2.091-2.851.21-1.364 1.479-2.3 2.851-2.091 44.305 6.813 137.833 26.689 154.504 37.083 12.186 7.598 18.897 18.427 18.416 29.712-.435 10.179-6.674 19.075-17.118 24.409-.364.186-.752.274-1.135.274z" fill="#111111"/><path d="m1148.093 1456.121c-.894 0-1.759-.481-2.208-1.325-.649-1.219-.188-2.733 1.031-3.382 4.918-2.62 7.975-7.969 7.976-13.961.002-8.66-5.937-16.794-16.294-22.318-16.516-8.808-76.194-15.957-106.394-15.957-1.381 0-2.5-1.119-2.5-2.5s1.119-2.5 2.5-2.5c30.574 0 91.045 7.104 108.746 16.544 12.041 6.421 18.945 16.165 18.942 26.732-.002 7.843-4.074 14.883-10.625 18.373-.375.199-.777.294-1.173.294z" fill="#111111"/><path d="m552.899 658.815c-101.901 1.751-223.084 20.128-296.399 156.582-54.203 100.883-256.936 434.95-223.968 551.716 19.864 70.353 120.878 86.507 164.905 86.74l685.216.003c19.354-27.321-4.16-58.02-11.792-86.743 13.04-25.382 37.289-130.5 3.913-166.043-28.941-30.82-107.775-27.073-208.613-3.662-103 23.913-233.552 20.224-298.186 2.703 0 0 46.902-82.884 69.1-184.359" fill="#40CFB7"/><path d="m882.653 1456.356-685.215-.003c-23.461-.124-60.048-4.719-92.416-17.243-40.792-15.784-65.99-39.778-74.895-71.317-6.77-23.978-4.147-58.648 7.795-103.048 10.109-37.585 27.193-83.256 50.776-135.744 42.901-95.484 99.266-195.962 136.563-262.45 11.668-20.8 21.745-38.764 29.038-52.336 33.503-62.356 78.877-104.856 138.716-129.927 55.644-23.313 114.651-27.195 159.842-27.971 1.362-.07 2.519 1.076 2.542 2.457s-1.076 2.519-2.457 2.542c-105.219 1.809-222.46 21.67-294.24 155.266-7.314 13.613-17.401 31.595-29.082 52.417-37.254 66.411-93.552 166.772-136.363 262.053-50.846 113.166-70.468 192.36-58.32 235.384 18.801 66.59 114.524 84.665 162.513 84.919l683.886.003c12.372-18.628 4.212-38.743-4.417-60.016-3.146-7.756-6.4-15.777-8.475-23.584-.159-.598-.09-1.234.192-1.785 6.755-13.149 15.747-46.042 19.099-78.327 4.168-40.132-1.083-70.27-14.785-84.862-13.321-14.186-38.705-21.379-75.439-21.379h-.083c-34.066.01-78.041 6.214-130.703 18.441-47.146 10.946-104.663 16.956-162.153 16.956-.635 0-1.264 0-1.898-.002-53.007-.122-102.341-5.324-135.354-14.273-.746-.202-1.355-.737-1.653-1.45-.298-.712-.25-1.522.131-2.194.467-.826 46.977-83.748 68.833-183.663.295-1.349 1.627-2.201 2.977-1.908 1.349.295 2.203 1.628 1.908 2.977-19.75 90.282-59.479 166.785-67.814 182.223 65.623 16.833 191.991 20.122 293.892-3.536 112.706-26.167 183.696-24.691 211 4.386 33.78 35.972 10.804 139.782-3.072 168.021 2.004 7.229 5.065 14.773 8.029 22.08 8.912 21.968 18.126 44.685 3.14 65.841-.469.662-1.229 1.055-2.04 1.055z" fill="#111111"/><path d="m367.975 1200.111c-79.944-16.385-156.309 36.945-167.124 49.112" fill="#40CFB7"/><path d="m200.85 1251.724c-.591 0-1.184-.208-1.66-.631-1.032-.917-1.125-2.498-.208-3.53 6.458-7.265 29.529-23.702 58.537-35.906 26.785-11.269 67.775-22.843 110.957-13.994 1.353.277 2.224 1.599 1.947 2.951s-1.6 2.223-2.951 1.947c-41.93-8.594-81.881 2.709-108.014 13.705-31.034 13.057-51.958 29.241-56.74 34.62-.494.556-1.18.839-1.869.839z" fill="#111111"/><path d="m870.861 1367.113c-6.618 12.484-14.311 24.82-15.568 40.847" fill="#40CFB7"/><path d="m855.296 1410.46c-.066 0-.132-.002-.198-.008-1.376-.108-2.405-1.311-2.297-2.688 1.147-14.625 7.395-26.168 13.437-37.331.812-1.5 1.621-2.995 2.415-4.492.647-1.221 2.161-1.685 3.38-1.038 1.22.647 1.685 2.16 1.038 3.38-.801 1.51-1.617 3.018-2.436 4.53-5.794 10.704-11.785 21.773-12.85 35.341-.103 1.31-1.197 2.305-2.489 2.305z" fill="#111111"/></g></g><g transform="translate(1775 1594)"><g clip-path="url(#assetClipPath_tkeXUvsi)" transform="scale(1.004462663352376 1.004462663352376)"><path d="m2.5 667.067h673.174l221.746 116.976h-894.92z" fill="#FFFFFF"/><path d="m897.42 786.544h-894.92c-1.381 0-2.5-1.119-2.5-2.5v-116.977c0-1.381 1.119-2.5 2.5-2.5h673.175c.406 0 .807.099 1.166.289l221.747 116.977c1.016.536 1.536 1.696 1.26 2.812-.277 1.115-1.278 1.899-2.428 1.899zm-892.42-5h882.324l-212.269-111.977h-670.055z" fill="#000000"/><path d="m1316.529 75.032-500.003 666.251 81.382 42.76 475.452-667.633z" fill="#FFFFFF"/><path d="m897.907 786.544c-.394 0-.791-.093-1.161-.287l-81.383-42.761c-.648-.341-1.114-.949-1.275-1.664-.161-.714-.001-1.464.438-2.05l500.003-666.251c.821-1.093 2.365-1.325 3.472-.521l56.831 41.379c1.107.807 1.359 2.355.564 3.471l-475.451 667.634c-.484.679-1.251 1.05-2.038 1.05zm-77.619-46.108 76.852 40.379 472.749-663.839-52.839-38.473z" fill="#000000"/><path d="m819.588 742.986-147.875-75.909 499.171-664.577 145.644 72.532z" fill="#CD7B61"/><path d="m819.586 745.486c-.387 0-.777-.089-1.141-.276l-147.874-75.909c-.656-.336-1.13-.945-1.295-1.664s-.005-1.473.438-2.062l499.171-664.577c.725-.965 2.036-1.273 3.113-.736l145.644 72.532c.663.33 1.146.937 1.317 1.657s.016 1.479-.426 2.073l-496.94 667.954c-.485.653-1.238 1.008-2.007 1.008zm-144.092-79.279 143.352 73.587 493.893-663.858-141.106-70.27z" fill="#000000"/><path d="m819.588 745.486h-817.088c-1.381 0-2.5-1.119-2.5-2.5s1.119-2.5 2.5-2.5h817.089c1.381 0 2.5 1.119 2.5 2.5s-1.12 2.5-2.501 2.5z" fill="#000000"/><path d="m38.346 667.201 24.283 37.844c3.857 5.996 10.497 9.621 17.626 9.621h114.662c17.942 0 27.573-21.079 15.828-34.641l-11.113-12.825h-161.286z" fill="#FFFFFF"/><path d="m194.917 717.167h-114.663c-8.017 0-15.393-4.026-19.729-10.769l-24.285-37.847c-.493-.77-.527-1.747-.089-2.549s1.279-1.301 2.193-1.301h161.286c.726 0 1.414.315 1.89.863l11.113 12.825c6.082 7.023 7.463 16.633 3.604 25.081s-12.028 13.697-21.32 13.697zm-151.998-47.466 21.813 33.995c3.41 5.303 9.214 8.471 15.521 8.471h114.662c7.31 0 13.737-4.128 16.773-10.774 3.036-6.645 1.949-14.205-2.835-19.729l-10.365-11.962h-155.569z" fill="#000000"/><path d="m502.598 667.077 68.334 49.828h74.398l-76.368-49.828z" fill="#FFFFFF"/><path d="m645.33 719.405h-74.397c-.529 0-1.045-.168-1.473-.48l-68.334-49.828c-.875-.638-1.239-1.766-.904-2.794.335-1.029 1.295-1.726 2.377-1.726h66.364c.485 0 .96.141 1.366.406l76.367 49.828c.927.604 1.346 1.746 1.03 2.806-.315 1.061-1.29 1.788-2.396 1.788zm-73.583-5h65.177l-68.704-44.828h-57.95z" fill="#000000"/><path d="m1220.575 47.781-2.135 3.77c-2.474 4.372-.936 9.921 3.435 12.397l3.771 2.135c4.371 2.475 9.922.939 12.398-3.432l2.135-3.77c2.474-4.372.937-9.922-3.435-12.397l-3.771-2.135c-4.372-2.474-9.922-.938-12.398 3.432z" fill="#CD7B61"/><path d="m1230.108 69.763c-1.935 0-3.894-.484-5.693-1.503l-3.771-2.135c-5.562-3.15-7.527-10.239-4.379-15.803l2.135-3.771h.001c3.151-5.562 10.24-7.523 15.804-4.375l3.771 2.135c5.562 3.151 7.527 10.24 4.379 15.804l-2.135 3.771c-2.134 3.761-6.068 5.877-10.112 5.877zm-7.358-20.75-2.135 3.77c-1.791 3.165-.674 7.198 2.491 8.99l3.771 2.135c3.163 1.792 7.199.676 8.991-2.489l2.134-3.77c1.791-3.165.674-7.198-2.491-8.99l-3.771-2.134c-3.162-1.791-7.197-.676-8.99 2.488z" fill="#000000"/><path d="m290.661 667.077 48.288 49.828h72.753l-53.109-49.828z" fill="#FFFFFF"/><path d="m411.703 719.405h-72.753c-.677 0-1.324-.274-1.795-.76l-48.288-49.828c-.699-.721-.898-1.79-.507-2.714.392-.925 1.298-1.525 2.302-1.525h67.933c.636 0 1.247.242 1.711.677l53.108 49.828c.748.702.991 1.79.613 2.743-.377.953-1.299 1.579-2.324 1.579zm-71.695-5h65.376l-47.779-44.828h-61.039z" fill="#000000"/><path d="m398.561 667.077 56.666 49.828h72.753l-64.719-49.828z" fill="#FFFFFF"/><path d="m527.981 719.405h-72.753c-.607 0-1.194-.221-1.65-.623l-56.667-49.828c-.782-.687-1.056-1.786-.688-2.76.367-.973 1.299-1.618 2.339-1.618h64.7c.552 0 1.088.183 1.525.519l64.72 49.828c.848.653 1.187 1.773.841 2.787-.345 1.014-1.297 1.695-2.367 1.695zm-71.811-5h64.465l-58.225-44.828h-57.22z" fill="#000000"/></g></g><g transform="translate(328 2381)"><g clip-path="url(#assetClipPath_BtT1Z_cx)" transform="scale(1.0059149722735674 1.0059149722735674)"><path d="m2.5 82.5v-80h2700v80z" fill="#FFFFFF"/><path d="m2702.5 85h-2700a2.5 2.5 0 0 1 -2.5-2.5v-80a2.5 2.5 0 0 1 2.5-2.5h2700a2.5 2.5 0 0 1 2.5 2.5v80a2.5 2.5 0 0 1 -2.5 2.5zm-2697.5-5h2695v-75h-2695z" fill="#111111"/></g></g><g transform="translate(1711 460)"><g clip-path="url(#assetClipPath_kDUQusUu)" transform="scale(0.9996425897517969 0.9996425897517969)"><path d="m1021.497 62.8 422.52-60.3-179.007 305.423-101.923-147.794-43.708-34.734z" fill="#D05F3B"/><path d="m1265.011 310.423c-.82 0-1.591-.403-2.058-1.081l-101.712-147.487-43.317-34.423-97.773-62.526c-.881-.563-1.318-1.615-1.097-2.636.222-1.021 1.056-1.797 2.09-1.945l422.52-60.3c.95-.136 1.895.285 2.429 1.082.535.797.567 1.83.082 2.658l-179.007 305.423c-.433.737-1.211 1.203-2.065 1.234-.03.001-.062.002-.092.002zm-236.491-246.1 92.206 58.966c.072.046.142.096.209.149l43.709 34.734c.192.154.362.335.502.538l99.694 144.561 174.4-297.564-410.721 58.616z" fill="#161616"/><path d="m1126.063 127.778 200.091-59.779-163.067 92.13-32.793 89.576z" fill="#753826"/><path d="m1130.296 252.205c-.131 0-.263-.01-.396-.031-1.182-.188-2.063-1.187-2.104-2.382l-4.23-121.927c-.04-1.137.692-2.156 1.782-2.482l200.091-59.779c1.222-.364 2.519.245 3.017 1.417s.037 2.53-1.071 3.156l-162.265 91.677-32.478 88.711c-.365.997-1.312 1.641-2.346 1.641zm-1.667-122.584 3.72 107.2 28.392-77.552c.204-.558.601-1.025 1.118-1.317l143.71-81.194-176.939 52.862z" fill="#161616"/><path d="m1130.294 249.705 69.839-35.857-37.046-53.719z" fill="#753826"/><path d="m1130.295 252.205c-.598 0-1.189-.214-1.656-.627-.771-.682-1.046-1.766-.692-2.733l32.794-89.576c.321-.878 1.105-1.503 2.032-1.621.926-.118 1.843.291 2.373 1.061l37.046 53.719c.409.592.542 1.331.367 2.029-.176.698-.644 1.286-1.283 1.614l-69.84 35.857c-.36.185-.752.276-1.141.276zm33.479-86.677-28.934 79.034 61.62-31.637-32.687-47.397z" fill="#161616"/><path d="m703.179 1530.097c-1.104 0-2.113-.736-2.413-1.853-33.687-125.632-47.187-256.881-39.042-379.56 7.313-110.139 32.015-208.932 69.558-278.182 28.67-52.881 57.691-90.755 85.324-117.738-22.313-51.233-25.216-111.697-8.313-175.613 10.584-40.019 30.014-80.152 57.75-119.286 22.153-31.256 49.628-61.952 81.661-91.235 54.515-49.835 104.074-78.718 104.568-79.003 1.196-.691 2.725-.283 3.416.912s.283 2.724-.912 3.416c-.49.284-49.658 28.948-103.783 78.443-49.852 45.587-114.237 118.683-137.866 208.032-17.629 66.657-12.025 124.294 7.507 170.468 53.411-50.375 101.29-60.432 130.963-60.432.185 0 .362 0 .546.001 45.763.191 86.729 23.904 106.913 61.886 16.536 31.117 15.246 66.375-3.449 94.315-11.845 17.701-31.227 28.504-56.048 31.24-23.45 2.585-50.736-2.484-76.843-14.272-43.723-19.742-79.873-55.103-101.794-99.568-.73-1.482-1.442-2.969-2.14-4.468-26.876 26.546-55.113 63.653-83.104 115.285-68.427 126.215-104.265 377.405-30.082 654.064.357 1.333-.434 2.705-1.768 3.062-.217.058-.435.086-.649.086zm119.575-776.353c22.096 48.891 59.983 84.354 102.02 103.335 25.303 11.425 51.667 16.348 74.236 13.859 23.31-2.57 41.442-12.615 52.44-29.051 17.918-26.777 19.081-59.284 3.19-89.188-19.318-36.353-58.601-59.05-102.52-59.233-.173 0-.353-.001-.527-.001-29.079 0-76.152 10.007-128.84 60.279z" fill="#161616"/><path d="m325.734 338.332-323.234-80.223 114.81 251.256 90.811-106.673 36.677-23.507z" fill="#D05F3B"/><path d="m117.31 511.864c-.114 0-.229-.008-.345-.024-.847-.118-1.574-.66-1.929-1.437l-114.81-251.255c-.399-.873-.264-1.897.35-2.636s1.593-1.061 2.526-.83l323.234 80.224c1.014.252 1.765 1.108 1.882 2.147s-.425 2.041-1.357 2.511l-80.822 40.795-36.256 23.237-90.569 106.389c-.479.562-1.176.879-1.903.879zm-110.382-250.08 111.024 242.97 88.266-103.682c.159-.188.347-.351.555-.484l36.677-23.508c.071-.046.146-.089.222-.127l74.923-37.817z" fill="#161616"/><path d="m239.421 380.506-150.604-62.23 119.304 84.416 18.374 72.131z" fill="#753826"/><path d="m226.494 477.323c-1.137 0-2.139-.77-2.422-1.883l-18.146-71.239-118.553-83.884c-1.038-.735-1.359-2.133-.745-3.248s1.967-1.589 3.145-1.104l150.604 62.23c1.051.434 1.676 1.523 1.521 2.65l-12.926 94.317c-.162 1.185-1.141 2.089-2.335 2.157-.048.003-.096.004-.143.004zm-118.084-148.246 101.155 71.574c.484.343.832.848.979 1.424l15.213 59.722 10.925-79.718-128.271-53.002z" fill="#161616"/><path d="m226.495 474.823-51.381-33.358 33.007-38.773z" fill="#753826"/><g fill="#161616"><path d="m226.495 477.323c-.473 0-.946-.134-1.361-.403l-51.381-33.359c-.604-.392-1.009-1.024-1.112-1.736-.104-.712.104-1.434.57-1.981l33.007-38.772c.604-.711 1.558-1.026 2.468-.815.911.211 1.628.912 1.858 1.818l18.374 72.131c.254.998-.129 2.049-.966 2.649-.435.312-.945.469-1.457.469zm-47.632-36.406 43.631 28.328-15.603-61.252z" fill="#161616"/><path d="m613.6 1176.716c-1.167 0-2.211-.822-2.448-2.01-48.954-244.767-138.344-412.099-204.711-509.371-71.907-105.39-133.025-153.523-133.635-153.997-1.09-.848-1.285-2.419-.438-3.508.846-1.089 2.416-1.286 3.508-.439.613.478 62.216 48.956 134.543 154.905 42.442 62.172 80.26 131.718 112.402 206.707 40.166 93.709 71.534 196.233 93.232 304.723.271 1.354-.607 2.671-1.961 2.942-.165.033-.33.049-.493.049z" fill="#161616"/></g></g></g></svg>