<svg width="17" height="24" viewBox="0 0 17 24" fill="none" xmlns="http://www.w3.org/2000/svg">
<path d="M8.50906 0.922607C5.46555 0.922607 2.97814 3.37337 2.97814 6.37202C2.97814 8.28048 2.02022 10.0301 1.13281 11.7197C0.545325 12.8383 0.212677 14.1072 0.212677 15.4544C0.212677 19.9692 3.92669 23.6285 8.50906 23.6285C13.0914 23.6285 16.8054 19.9692 16.8054 15.4544C16.8054 14.1072 16.4728 12.8383 15.8853 11.7197C14.9979 10.0301 14.04 8.28048 14.04 6.37202C14.04 3.60025 11.8981 1.34744 9.17154 1.01867C8.95055 0.992025 8.73161 0.926599 8.50906 0.922607ZM8.50906 2.73908C10.5558 2.73908 12.1963 4.3554 12.1963 6.37202C12.1963 7.18713 11.3311 7.73032 10.5406 7.53149C9.89091 7.36807 9.21068 7.28025 8.50906 7.28025C7.80743 7.28025 7.1272 7.36807 6.47748 7.53149C5.68699 7.73032 4.82178 7.18713 4.82178 6.37202C4.82178 4.3554 6.46227 2.73908 8.50906 2.73908ZM8.50906 13.6379C9.52767 13.6379 10.3527 14.4508 10.3527 15.4544C10.3527 15.7113 10.2978 15.9548 10.1993 16.1752C9.90638 16.8304 9.43088 17.4614 9.43088 18.1791C9.43088 18.6804 9.0179 19.0873 8.50906 19.0873C8.00021 19.0873 7.58724 18.6804 7.58724 18.1791C7.58724 17.4616 7.11128 16.8307 6.81865 16.1755C6.72021 15.9551 6.66542 15.7115 6.66542 15.4544C6.66542 14.4508 7.49045 13.6379 8.50906 13.6379Z" fill="#6B6B6B"/>
</svg>
