<svg width="22" height="28" viewBox="0 0 22 28" fill="none" xmlns="http://www.w3.org/2000/svg">
<path d="M11 0.90448C10.0095 0.90448 9.11448 1.41456 7.87598 2.11946C6.28048 3.02847 4.09408 4.27237 0.39258 5.15215L0 5.24521V5.68087C0 22.1747 10.682 27.7052 10.79 27.7588L11.0107 27.8688L11.2266 27.7493C11.3341 27.6898 22 21.6251 22 5.68087V5.24521L21.6074 5.15216C17.9059 4.27239 15.7195 3.02848 14.124 2.11947C12.8855 1.41457 11.9905 0.90448 11 0.90448ZM10 7.34842H12.0996L12.3496 9.08048C12.4996 9.13462 12.6996 9.18898 12.8496 9.29726L14.1504 8.26838L15.5996 9.83866L14.7002 11.3011C14.8002 11.4635 14.8504 11.6801 14.9004 11.8425L16.5 12.1132V14.3866L14.9502 14.7113C14.9002 14.8737 14.85 15.09 14.75 15.3066L15.7002 16.7151L14.2002 18.3393L12.8496 17.3643C12.6496 17.4726 12.4996 17.527 12.3496 17.5811L12.0498 19.2593H10L9.75 17.5272C9.55 17.473 9.4002 17.4187 9.2002 17.3104L7.84962 18.2843L6.34962 16.6601L7.25 15.1987C7.15 15.0363 7.09981 14.8198 7.04981 14.6573L5.5 14.3866V12.1132L7.04981 11.8425C7.09981 11.6259 7.2 11.4626 7.25 11.2461L6.34962 9.89259L7.84962 8.26838L9.2002 9.29726C9.3502 9.18898 9.5502 9.13462 9.7002 9.08048L10 7.34842ZM11 11.6796C10.1716 11.6796 9.5 12.4068 9.5 13.3038C9.5 14.2009 10.1716 14.928 11 14.928C11.8284 14.928 12.5 14.2009 12.5 13.3038C12.5 12.4068 11.8284 11.6796 11 11.6796Z" fill="white"/>
</svg>
