<svg width="22" height="22" viewBox="0 0 22 22" fill="none" xmlns="http://www.w3.org/2000/svg">
<path d="M21.8326 9.77645C21.8326 13.9046 19.8267 16.4599 16.5609 16.4599C14.9276 16.4599 13.7458 15.7752 13.3481 14.6072C13.3229 14.5334 13.255 14.4814 13.177 14.4814C13.106 14.4814 13.0423 14.5247 13.0138 14.5897C12.465 15.8414 11.4577 16.4736 9.99113 16.4736C7.26388 16.4736 5.45451 14.2721 5.45451 10.9436C5.45451 7.75875 7.19838 5.61006 9.79464 5.61006C11.175 5.61006 12.2684 6.25716 12.809 7.38212C12.8349 7.43592 12.8888 7.47129 12.9484 7.47129C13.0319 7.47129 13.0995 7.40364 13.0995 7.32019V6.69805C13.0995 6.27101 13.4457 5.92482 13.8728 5.92482H14.6074C15.4401 5.92482 16.1152 6.59989 16.1152 7.43263V12.5819C16.1152 13.5125 16.5345 14.0629 17.2432 14.0629C18.3967 14.0629 19.1317 12.5301 19.1317 10.0921C19.1317 5.34807 16.0242 2.30789 11.1856 2.30789C6.13678 2.30789 2.70178 5.84658 2.70178 10.9963C2.70178 16.2116 6.16316 19.4756 11.7232 19.4756C12.2943 19.4756 12.8743 19.4403 13.3991 19.3809C14.1327 19.2979 14.8571 19.8558 14.8571 20.5941C14.8571 21.0933 14.5208 21.5337 14.029 21.6193C13.242 21.7563 12.3416 21.8326 11.4339 21.8326C4.57665 21.8326 0 17.4688 0 10.929C0 4.4684 4.58939 0 11.2247 0C17.5452 0 21.8326 3.95806 21.8326 9.77645ZM8.90314 11.0346C8.90314 12.7384 9.61088 13.76 10.8044 13.76C12.0106 13.76 12.7448 12.7248 12.7448 11.0346C12.7448 9.34434 11.997 8.30912 10.8044 8.30912C9.61179 8.30912 8.90314 9.3307 8.90314 11.0346Z" fill="#6B6B6B"/>
</svg>
