<svg xmlns="http://www.w3.org/2000/svg" xmlns:xlink="http://www.w3.org/1999/xlink" viewBox="0,0,256,256" width="32px" height="32px" fill-rule="nonzero"><g transform="translate(-40.96,-40.96) scale(1.32,1.32)"><g fill="#40cfb7" fill-rule="nonzero" stroke="none" stroke-width="1" stroke-linecap="butt" stroke-linejoin="miter" stroke-miterlimit="10" stroke-dasharray="" stroke-dashoffset="0" font-family="none" font-weight="none" font-size="none" text-anchor="none" style="mix-blend-mode: normal"><g transform="scale(8,8)"><path d="M7,4c-1.64453,0 -3,1.35547 -3,3c0,1.64453 1.35547,3 3,3c1.64453,0 3,-1.35547 3,-3c0,-1.64453 -1.35547,-3 -3,-3zM18.9375,4.90625c-0.3125,0.00391 -0.62891,0.02734 -0.9375,0.0625c-2.46875,0.28906 -4.77344,1.55469 -6.53125,3.3125c-1.23437,1.23047 -2.25781,3 -2.59375,6.28125c-0.01172,0.03125 -0.02344,0.0625 -0.03125,0.09375c0,0.01172 0,0.01953 0,0.03125c-0.02344,0.05078 -0.04687,0.10156 -0.0625,0.15625c-0.00391,0.02344 0.00391,0.03516 0,0.0625c0,0.03125 0,0.0625 0,0.09375c0,0.01172 0,0.01953 0,0.03125c0.00391,0.0625 0.01563,0.125 0.03125,0.1875c0.01563,0.0625 0.03516,0.12891 0.0625,0.1875c0.05078,0.89844 0.17578,1.81641 0.5,2.6875h-0.03125c0.01563,0.08594 0.11719,0.51563 0.125,0.9375c0.00391,0.31641 -0.10937,0.60547 -0.125,0.6875c-0.60937,0.60547 -1.33984,1.23828 -2.03125,1.78125c-0.69141,0.54297 -1.28906,1.01172 -1.71875,1.4375h-0.03125c-0.53125,0.54297 -0.74609,1.37109 -0.59375,2.0625c0.15234,0.69922 0.55469,1.30469 1.09375,1.84375c0.53516,0.53516 1.14453,0.93359 1.84375,1.09375c0.69922,0.16016 1.54688,-0.04687 2.09375,-0.59375c0.4375,-0.4375 0.85938,-1.05469 1.40625,-1.75c0.54688,-0.69531 1.16797,-1.44922 1.78125,-2.0625c-0.07031,0.07031 0.23438,-0.09375 0.625,-0.09375c0.31641,0 0.57813,0.03125 0.78125,0.0625c0.05078,0.00781 0.15625,0.02734 0.1875,0.03125c0.87109,0.32422 1.78906,0.44531 2.6875,0.5c0.01172,0 0.01953,0.03125 0.03125,0.03125c0.07031,0.01953 0.14453,0.02734 0.21875,0.03125c0.03125,0.01172 0.0625,0.02344 0.09375,0.03125c0.03125,0 0.0625,0 0.09375,0c0.01953,0 0.04297,0 0.0625,0c0.01172,0 0.01953,0 0.03125,0c0.0625,-0.00391 0.125,-0.01562 0.1875,-0.03125c0.03906,-0.00391 0.05469,-0.02734 0.09375,-0.03125c0.01172,0 0.01953,0 0.03125,0c3.01172,-0.25 5.03125,-1.33984 6.3125,-2.625c1.75781,-1.75781 3.02344,-4.0625 3.3125,-6.53125c0.28906,-2.46875 -0.48047,-5.10547 -2.65625,-7.28125c-1.90234,-1.90234 -4.15625,-2.73437 -6.34375,-2.71875zM7,6c0.5625,0 1,0.4375 1,1c0,0.5625 -0.4375,1 -1,1c-0.5625,0 -1,-0.4375 -1,-1c0,-0.5625 0.4375,-1 1,-1zM18.9375,6.90625c1.6875,-0.03125 3.37891,0.56641 4.9375,2.125c1.78516,1.78125 2.28906,3.73047 2.0625,5.65625c-0.22656,1.92578 -1.23828,3.86328 -2.71875,5.34375c-0.99609,0.99609 -2.44141,1.77344 -4.96875,2l-7.375,-7.375c0.29297,-2.82031 0.98828,-3.89453 2.03125,-4.9375c1.48047,-1.48047 3.38281,-2.52344 5.3125,-2.75c0.24219,-0.02734 0.47656,-0.05859 0.71875,-0.0625zM11.34375,18l3.5625,3.53125c-0.26562,-0.04297 -0.59766,-0.09375 -1.09375,-0.09375c-0.60937,0.00391 -1.38281,0.03906 -2.03125,0.6875c-0.71875,0.71875 -1.37891,1.50781 -1.9375,2.21875c-0.55859,0.71094 -1.05469,1.36719 -1.28125,1.59375c-0.11719,0.11719 -0.05859,0.09766 -0.21875,0.0625c-0.16016,-0.03516 -0.48437,-0.23437 -0.84375,-0.59375c-0.35156,-0.35156 -0.52734,-0.67578 -0.5625,-0.84375c-0.03516,-0.16797 -0.07031,-0.12109 0.03125,-0.21875c0.21094,-0.21094 0.84766,-0.71875 1.5625,-1.28125c0.71484,-0.5625 1.53125,-1.21875 2.25,-1.9375c0.69141,-0.69141 0.69922,-1.49219 0.6875,-2.125c-0.00781,-0.48047 -0.08203,-0.76172 -0.125,-1z"></path></g></g></g></svg>