<svg xmlns="http://www.w3.org/2000/svg" xmlns:xlink="http://www.w3.org/1999/xlink" viewBox="0,0,256,256" width="32px" height="32px" fill-rule="nonzero"><g fill="#ffffff" fill-rule="nonzero" stroke="none" stroke-width="1" stroke-linecap="butt" stroke-linejoin="miter" stroke-miterlimit="10" stroke-dasharray="" stroke-dashoffset="0" font-family="none" font-weight="none" font-size="none" text-anchor="none" style="mix-blend-mode: normal"><g transform="scale(8,8)"><path d="M16,3c-1.91667,0 -3.48144,0.75476 -4.49805,1.89844c-1.01661,1.14368 -1.50195,2.62934 -1.50195,4.10156c0,1.47222 0.48535,2.95788 1.50195,4.10156c1.01661,1.14368 2.58138,1.89844 4.49805,1.89844c3.30186,0 6,-2.69814 6,-6c0,-3.30186 -2.69814,-6 -6,-6zM16,5c2.22099,0 4,1.77902 4,4c0,2.22099 -1.77901,4 -4,4c-1.41667,0 -2.35189,-0.49524 -3.00195,-1.22656c-0.65006,-0.73132 -0.99805,-1.74566 -0.99805,-2.77344c0,-1.02778 0.34799,-2.04212 0.99805,-2.77344c0.65006,-0.73132 1.58529,-1.22656 3.00195,-1.22656zM15.99805,16.95703c-2.35715,0 -5.18515,0.61867 -7.53516,1.64258c-1.175,0.51196 -2.23041,1.12292 -3.04492,1.87109c-0.81451,0.74817 -1.43164,1.69435 -1.43164,2.80664c0,1.82974 1.189,3.30391 2.69727,4.01172c2.08352,0.97813 5.2555,1.54373 8.67383,1.61914c3.41833,0.07541 7.04973,-0.35545 9.94531,-1.625c1.54953,-0.67887 2.71029,-2.18939 2.70898,-4.00586c0,-1.11229 -0.61713,-2.05847 -1.43164,-2.80664c-0.81451,-0.74817 -1.86992,-1.35914 -3.04492,-1.87109c-2.35,-1.02391 -5.17996,-1.64258 -7.53711,-1.64258zM15.99805,18.95703c1.99185,0 4.66903,0.57498 6.73828,1.47656c1.03462,0.45079 1.91934,0.98537 2.49023,1.50977c0.57089,0.52439 0.78516,0.97828 0.78516,1.33398c0,0.00065 0,0.0013 0,0.00195c0.0007,0.96954 -0.60525,1.77474 -1.51172,2.17188c-2.47342,1.08445 -5.88869,1.52982 -9.09961,1.45898c-3.21092,-0.07084 -6.25071,-0.67277 -7.86719,-1.43164c-0.93374,-0.43819 -1.54687,-1.22891 -1.54687,-2.20117c0,-0.35571 0.21426,-0.80959 0.78516,-1.33398c0.57089,-0.52439 1.45561,-1.05897 2.49023,-1.50977c2.06925,-0.90159 4.74448,-1.47656 6.73633,-1.47656z"></path></g></g></svg>