<svg width="22" height="22" viewBox="0 0 22 22" fill="none" xmlns="http://www.w3.org/2000/svg">
<path d="M1.61474 0.53125C1.40752 0.531304 1.20502 0.593157 1.03313 0.708901C0.86125 0.824644 0.727788 0.989019 0.649812 1.18101C0.571836 1.373 0.552888 1.58389 0.595393 1.7867C0.637897 1.98952 0.739921 2.17505 0.888421 2.31958L2.9392 4.37036C1.47103 6.16414 0.583246 8.44734 0.583246 10.9418C0.583246 13.821 1.76155 16.4284 3.65738 18.3149C4.09697 18.7524 4.82325 18.7036 5.20971 18.2192C5.53471 17.8109 5.51137 17.2218 5.14054 16.8541C3.6145 15.3437 2.66658 13.2522 2.66658 10.9418C2.66658 9.02314 3.32514 7.26058 4.42032 5.85148L5.90958 7.34074C5.18466 8.35993 4.74991 9.59823 4.74991 10.9418C4.74991 12.4887 5.317 13.9049 6.25138 14.9966C6.66388 15.4789 7.42822 15.4284 7.82405 14.9315L7.83626 14.9172C8.15396 14.5183 8.11754 13.9651 7.7915 13.5724C7.19671 12.8578 6.83325 11.9439 6.83325 10.9418C6.83325 10.1754 7.06347 9.47418 7.42936 8.86051L9.44555 10.8767C9.44461 10.899 9.43741 10.9193 9.43741 10.9418C9.43741 11.8043 10.1374 12.5043 10.9999 12.5043C11.0224 12.5043 11.0428 12.4971 11.065 12.4962L19.6384 21.0696C19.7344 21.1696 19.8494 21.2494 19.9766 21.3044C20.1038 21.3593 20.2407 21.3884 20.3793 21.3898C20.5179 21.3912 20.6554 21.365 20.7837 21.3126C20.912 21.2602 21.0285 21.1827 21.1265 21.0847C21.2245 20.9867 21.302 20.8702 21.3544 20.7418C21.4068 20.6135 21.433 20.4761 21.4316 20.3375C21.4302 20.1989 21.4012 20.062 21.3462 19.9348C21.2912 19.8075 21.2114 19.6926 21.1114 19.5966L2.3614 0.846598C2.26433 0.746812 2.14824 0.667495 2.02 0.613332C1.89175 0.559168 1.75395 0.531258 1.61474 0.53125ZM17.5673 3.288C17.2824 3.30506 17.0042 3.43848 16.8105 3.68066C16.4844 4.08796 16.5058 4.67811 16.8756 5.04582C18.3912 6.55415 19.3332 8.63869 19.3332 10.9418C19.3332 12.1856 19.0457 13.3584 18.554 14.4188L20.0962 15.963C20.9254 14.4713 21.4166 12.7658 21.4166 10.9418C21.4166 8.07098 20.2472 5.47349 18.3628 3.58911C18.144 3.37036 17.8522 3.27095 17.5673 3.288ZM14.9652 6.56356C14.6727 6.5771 14.3823 6.71237 14.1839 6.96029L14.1737 6.97453C13.855 7.37349 13.8915 7.92866 14.2165 8.32137C14.8081 9.03595 15.1666 9.9439 15.1666 10.9418C15.1666 10.9699 15.1615 10.9971 15.1605 11.0252L16.9508 12.8156C17.1394 12.2229 17.2499 11.596 17.2499 10.9418C17.2499 9.40119 16.6878 7.98988 15.7586 6.89925C15.5529 6.65758 15.2576 6.55002 14.9652 6.56356Z" fill="white"/>
</svg>
