<svg width="26" height="19" viewBox="0 0 26 19" fill="none" xmlns="http://www.w3.org/2000/svg">
<path d="M21.4062 0.44247C21.3691 0.446376 21.334 0.450282 21.2969 0.458095C20.9277 0.508876 20.6172 0.762782 20.4922 1.11434C20.3672 1.46591 20.4492 1.85653 20.7031 2.12997C22.4395 4.07333 23.5 6.63192 23.5 9.45809C23.5 12.2804 22.4473 14.8546 20.7031 16.8018C20.4258 17.0597 20.3184 17.4542 20.4258 17.8175C20.5332 18.1807 20.8359 18.4522 21.209 18.5186C21.582 18.585 21.9609 18.4347 22.1875 18.13C24.248 15.8292 25.5 12.7823 25.5 9.45809C25.5 6.13388 24.2539 3.09872 22.2031 0.801845C22.0059 0.565517 21.7129 0.434657 21.4062 0.44247ZM4.46875 0.458095C4.20898 0.479579 3.9668 0.604579 3.79688 0.801845C1.74609 3.10067 0.5 6.14364 0.5 9.45809C0.5 12.7901 1.75195 15.8311 3.8125 18.13C4.03906 18.4347 4.41797 18.585 4.79102 18.5186C5.16406 18.4522 5.4668 18.1807 5.57422 17.8175C5.68164 17.4542 5.57422 17.0597 5.29688 16.8018C3.55273 14.8565 2.5 12.2901 2.5 9.45809C2.5 6.64364 3.56055 4.07528 5.29688 2.12997C5.57617 1.82528 5.63867 1.37997 5.45508 1.01083C5.27344 0.639735 4.88086 0.420985 4.46875 0.458095ZM17.8281 4.12997C17.791 4.13388 17.7559 4.13778 17.7188 4.14559C17.3496 4.19638 17.0391 4.45028 16.9141 4.80184C16.7891 5.15341 16.8711 5.54403 17.125 5.81747C17.9824 6.78622 18.5 8.04989 18.5 9.45809C18.5 10.8565 17.9805 12.1261 17.125 13.0987C16.8535 13.3604 16.752 13.753 16.8652 14.1143C16.9766 14.4737 17.2812 14.7413 17.6523 14.8038C18.0254 14.8663 18.4004 14.7159 18.625 14.4112C19.7891 13.089 20.5 11.3526 20.5 9.45809C20.5 7.5538 19.7949 5.80966 18.625 4.48934C18.4277 4.25302 18.1348 4.12216 17.8281 4.12997ZM8.03125 4.16122C7.77148 4.1827 7.5293 4.3077 7.35938 4.50497C6.20117 5.82528 5.5 7.56942 5.5 9.45809C5.5 11.3819 6.22852 13.1475 7.42188 14.4737C7.79297 14.8839 8.42578 14.9151 8.83594 14.544C9.24609 14.1729 9.27734 13.5401 8.90625 13.13C8.03125 12.1573 7.5 10.8819 7.5 9.45809C7.5 8.06356 8.00781 6.8038 8.85938 5.83309C9.13867 5.52841 9.20117 5.08309 9.01758 4.71395C8.83594 4.34286 8.44336 4.12411 8.03125 4.16122ZM13 6.95809C11.6211 6.95809 10.5 8.07919 10.5 9.45809C10.5 10.837 11.6211 11.9581 13 11.9581C14.3789 11.9581 15.5 10.837 15.5 9.45809C15.5 8.07919 14.3789 6.95809 13 6.95809Z" fill="white"/>
</svg>
