<svg width="21" height="17" viewBox="0 0 21 17" fill="none" xmlns="http://www.w3.org/2000/svg">
<path d="M10.4356 0.415771C7.47964 0.415771 5.16061 1.4018 3.39065 2.694C-0.636952 5.63443 -0.636951 11.7899 3.39065 14.7303C5.16061 16.0225 7.47965 17.0085 10.4356 17.0085C13.3915 17.0085 15.7106 16.0225 17.4805 14.7303C21.5081 11.7899 21.5081 5.63443 17.4805 2.69399C15.7106 1.4018 13.3915 0.415771 10.4356 0.415771ZM10.4356 2.48987C10.9729 2.48987 11.4849 2.52981 11.9725 2.60366C18.402 3.57745 18.3997 13.8357 11.9716 14.8195C11.4841 14.8941 10.9724 14.9344 10.4356 14.9344C9.90053 14.9344 9.39048 14.8948 8.90473 14.8216C2.47128 13.8512 2.47375 3.58406 8.90571 2.60391C9.39134 2.52991 9.90107 2.48987 10.4356 2.48987ZM10.4356 4.56396C8.06803 4.56396 6.14847 6.42131 6.14847 8.71215C6.14847 11.003 8.06803 12.8603 10.4356 12.8603C12.8032 12.8603 14.7227 11.003 14.7227 8.71215C14.7227 6.42131 12.8032 4.56396 10.4356 4.56396ZM10.4356 6.63806C11.6199 6.63806 12.5792 7.56622 12.5792 8.71215C12.5792 9.85809 11.6199 10.7862 10.4356 10.7862C9.25127 10.7862 8.29203 9.85809 8.29203 8.71215C8.29203 7.56622 9.25127 6.63806 10.4356 6.63806Z" fill="#717171"/>
</svg>
