<svg width="30" height="30" viewBox="0 0 30 30" fill="none" xmlns="http://www.w3.org/2000/svg">
<path d="M15.0093 26.25C10.6343 26.25 3.75928 23.125 3.75928 14.375C3.75928 11.3063 6.57303 3.75 15.0093 3.75C20.0093 3.75 23.333 7.93125 23.333 10.625C23.333 12.5 21.8843 13.75 21.8843 13.75L19.6874 12.6312C19.6874 12.6312 20.0093 12.1656 20.0093 11.25C20.0093 10 18.7593 8.75 17.5093 8.75C15.2487 8.75 14.3843 11.25 14.3843 12.5C14.3843 15.625 17.0755 18.125 20.0093 18.125C24.6205 18.125 26.2593 15.625 26.2593 15.625C26.2593 18.125 23.7593 26.25 15.0093 26.25Z" fill="url(#paint0_radial_268_307)"/>
<path d="M15.0094 26.25C10.6344 26.25 8.20068 20.9781 8.20068 16.7937C8.20068 10.745 12.0719 7.45374 15.7557 7.45374C21.0957 7.45374 21.4638 12.915 21.4638 12.915L19.6869 12.6319C19.6869 12.6319 20.0088 12.1662 20.0088 11.2506C20.0088 10.0006 18.7588 8.75061 17.5088 8.75061C15.2482 8.75061 14.3838 11.2506 14.3838 12.5006C14.3838 15.6256 17.0751 18.1256 20.0088 18.1256C24.6201 18.1256 26.2588 15.6256 26.2588 15.6256C26.2594 18.125 23.7594 26.25 15.0094 26.25Z" fill="url(#paint1_radial_268_307)"/>
<path d="M15.0092 26.25C10.4442 25.5881 8.20043 20.9781 8.20043 16.7937C8.20043 10.9437 12.0717 7.45375 15.7554 7.45375C9.15043 7.18562 6.90918 12.2894 6.90918 16.1575C6.90918 20.9062 9.12168 25.7575 15.0092 26.25Z" fill="url(#paint2_radial_268_307)"/>
<path d="M12.8005 9.87875C12.8005 9.87875 10.0093 11.2381 10.0093 16.1963C10.0093 19.2663 12.638 23.125 16.988 23.125C20.7912 23.125 22.5062 20.2475 22.5062 20.2475C22.5062 20.2475 20.8924 22.0244 17.3162 22.0244C14.0555 22.0244 10.8855 18.9588 10.8855 15.4813C10.8855 11.1863 12.8005 9.87875 12.8005 9.87875Z" fill="url(#paint3_linear_268_307)"/>
<path d="M13.5036 11.1031C13.5036 11.1031 12.4379 12.1856 12.5061 15.5437C12.5523 17.8256 14.1654 20.1531 17.1723 20.4806C19.8367 20.7712 21.5723 19.6537 21.5723 19.6537C21.5723 19.6537 13.6542 21.7194 12.9673 15.1519C12.6667 12.2806 13.5036 11.1031 13.5036 11.1031Z" fill="url(#paint4_linear_268_307)"/>
<path d="M11.7156 15.82C11.7156 15.82 11.0006 18.8919 13.35 20.7969C15.1438 22.2513 18.5994 21.4844 18.5994 21.4844C18.5994 21.4844 12.2638 21.71 11.7156 15.82Z" fill="url(#paint5_linear_268_307)"/>
<path d="M11.1744 6.1825C11.1744 6.1825 7.49873 7.49249 5.83186 11.5912C3.79498 16.5994 7.06748 21.6412 7.06748 21.6412C7.06748 21.6412 4.60561 17.0237 6.59998 11.5581C7.50186 9.08687 9.07123 7.48437 11.1744 6.1825Z" fill="url(#paint6_radial_268_307)"/>
<path d="M8.53981 8.92938C8.53981 8.92938 6.71669 10.5969 6.26356 12.1975C5.43419 15.1244 6.53981 17.84 6.53981 17.84C6.53981 17.84 6.17356 15.0825 6.76731 12.4094C7.12544 10.7994 8.53981 8.92938 8.53981 8.92938Z" fill="url(#paint7_radial_268_307)"/>
<path d="M13.8505 15.7175C13.8505 15.7175 13.4155 17.9031 15.118 19.1944C16.418 20.1806 18.8399 19.56 18.8399 19.56C18.8399 19.56 14.3724 19.8637 13.8505 15.7175Z" fill="url(#paint8_linear_268_307)"/>
<path d="M16.1885 4.42874C16.1885 4.42874 21.2479 5.47999 22.3866 9.59999C23.1347 12.3081 21.5054 9.93499 21.5054 9.93499C21.5054 9.93499 20.851 6.17999 16.1885 4.42874Z" fill="url(#paint9_linear_268_307)"/>
<path d="M18.4849 6.66937C18.4849 6.66937 20.138 7.3075 20.7936 9.12312C21.4986 11.075 20.2492 9.30812 20.2492 9.30812C20.2492 9.30812 19.8861 7.5725 18.4849 6.66937Z" fill="url(#paint10_linear_268_307)"/>
<path d="M20.3218 13.75C21.1847 13.75 21.8843 13.0504 21.8843 12.1875C21.8843 11.3246 21.1847 10.625 20.3218 10.625C19.4588 10.625 18.7593 11.3246 18.7593 12.1875C18.7593 13.0504 19.4588 13.75 20.3218 13.75Z" fill="#9FD5ED"/>
<path d="M20.6343 15C21.3246 15 21.8843 14.4404 21.8843 13.75C21.8843 13.0596 21.3246 12.5 20.6343 12.5C19.9439 12.5 19.3843 13.0596 19.3843 13.75C19.3843 14.4404 19.9439 15 20.6343 15Z" fill="#9FD5ED"/>
<path d="M22.5093 14.375C23.1996 14.375 23.7593 13.8154 23.7593 13.125C23.7593 12.4346 23.1996 11.875 22.5093 11.875C21.8189 11.875 21.2593 12.4346 21.2593 13.125C21.2593 13.8154 21.8189 14.375 22.5093 14.375Z" fill="#9FD5ED"/>
<path d="M22.1968 10C22.7145 10 23.1343 9.58027 23.1343 9.0625C23.1343 8.54473 22.7145 8.125 22.1968 8.125C21.679 8.125 21.2593 8.54473 21.2593 9.0625C21.2593 9.58027 21.679 10 22.1968 10Z" fill="#9FD5ED"/>
<path d="M23.1343 11.25C23.8246 11.25 24.3843 10.6904 24.3843 10C24.3843 9.30964 23.8246 8.75 23.1343 8.75C22.4439 8.75 21.8843 9.30964 21.8843 10C21.8843 10.6904 22.4439 11.25 23.1343 11.25Z" fill="#9FD5ED"/>
<path d="M19.6968 11.875C20.2145 11.875 20.6343 11.4553 20.6343 10.9375C20.6343 10.4197 20.2145 10 19.6968 10C19.179 10 18.7593 10.4197 18.7593 10.9375C18.7593 11.4553 19.179 11.875 19.6968 11.875Z" fill="#9FD5ED"/>
<path d="M21.2593 11.875C22.2948 11.875 23.1343 11.0355 23.1343 10C23.1343 8.96447 22.2948 8.125 21.2593 8.125C20.2237 8.125 19.3843 8.96447 19.3843 10C19.3843 11.0355 20.2237 11.875 21.2593 11.875Z" fill="#9FD5ED"/>
<path d="M23.1343 12.5C23.8246 12.5 24.3843 11.9404 24.3843 11.25C24.3843 10.5596 23.8246 10 23.1343 10C22.4439 10 21.8843 10.5596 21.8843 11.25C21.8843 11.9404 22.4439 12.5 23.1343 12.5Z" fill="#9FD5ED"/>
<path d="M20.3218 13.75C21.1847 13.75 21.8843 13.0504 21.8843 12.1875C21.8843 11.3246 21.1847 10.625 20.3218 10.625C19.4588 10.625 18.7593 11.3246 18.7593 12.1875C18.7593 13.0504 19.4588 13.75 20.3218 13.75Z" fill="url(#paint11_radial_268_307)"/>
<path d="M20.6343 15C21.3246 15 21.8843 14.4404 21.8843 13.75C21.8843 13.0596 21.3246 12.5 20.6343 12.5C19.9439 12.5 19.3843 13.0596 19.3843 13.75C19.3843 14.4404 19.9439 15 20.6343 15Z" fill="url(#paint12_radial_268_307)"/>
<path d="M22.5093 14.375C23.1996 14.375 23.7593 13.8154 23.7593 13.125C23.7593 12.4346 23.1996 11.875 22.5093 11.875C21.8189 11.875 21.2593 12.4346 21.2593 13.125C21.2593 13.8154 21.8189 14.375 22.5093 14.375Z" fill="url(#paint13_radial_268_307)"/>
<path d="M21.5837 13.6587C22.4656 13.6587 23.1806 12.9438 23.1806 12.0619C23.1806 11.1799 22.4656 10.465 21.5837 10.465C20.7018 10.465 19.9868 11.1799 19.9868 12.0619C19.9868 12.9438 20.7018 13.6587 21.5837 13.6587Z" fill="url(#paint14_radial_268_307)"/>
<path d="M22.1968 10C22.7145 10 23.1343 9.58027 23.1343 9.0625C23.1343 8.54473 22.7145 8.125 22.1968 8.125C21.679 8.125 21.2593 8.54473 21.2593 9.0625C21.2593 9.58027 21.679 10 22.1968 10Z" fill="url(#paint15_radial_268_307)"/>
<path d="M23.1343 11.25C23.8246 11.25 24.3843 10.6904 24.3843 10C24.3843 9.30964 23.8246 8.75 23.1343 8.75C22.4439 8.75 21.8843 9.30964 21.8843 10C21.8843 10.6904 22.4439 11.25 23.1343 11.25Z" fill="url(#paint16_radial_268_307)"/>
<path d="M19.6968 11.875C20.2145 11.875 20.6343 11.4553 20.6343 10.9375C20.6343 10.4197 20.2145 10 19.6968 10C19.179 10 18.7593 10.4197 18.7593 10.9375C18.7593 11.4553 19.179 11.875 19.6968 11.875Z" fill="url(#paint17_radial_268_307)"/>
<path d="M21.2593 11.875C22.2948 11.875 23.1343 11.0355 23.1343 10C23.1343 8.96447 22.2948 8.125 21.2593 8.125C20.2237 8.125 19.3843 8.96447 19.3843 10C19.3843 11.0355 20.2237 11.875 21.2593 11.875Z" fill="url(#paint18_radial_268_307)"/>
<path d="M23.1343 12.5C23.8246 12.5 24.3843 11.9404 24.3843 11.25C24.3843 10.5596 23.8246 10 23.1343 10C22.4439 10 21.8843 10.5596 21.8843 11.25C21.8843 11.9404 22.4439 12.5 23.1343 12.5Z" fill="url(#paint19_radial_268_307)"/>
<defs>
<radialGradient id="paint0_radial_268_307" cx="0" cy="0" r="1" gradientUnits="userSpaceOnUse" gradientTransform="translate(20.0549 -4.05375) scale(36.4137)">
<stop stop-color="#B3F1FF"/>
<stop offset="0.068" stop-color="#A4E8FD"/>
<stop offset="0.199" stop-color="#7DD1F9"/>
<stop offset="0.377" stop-color="#3EADF2"/>
<stop offset="0.538" stop-color="#0088EB"/>
<stop offset="0.594" stop-color="#0D90ED"/>
<stop offset="0.699" stop-color="#31A5F0"/>
<stop offset="0.841" stop-color="#6AC6F7"/>
<stop offset="1" stop-color="#B3F1FF"/>
</radialGradient>
<radialGradient id="paint1_radial_268_307" cx="0" cy="0" r="1" gradientUnits="userSpaceOnUse" gradientTransform="translate(18.7388 6.82373) scale(20.1881 20.1881)">
<stop stop-color="#B3F1FF"/>
<stop offset="0.343" stop-color="#56B9F2"/>
<stop offset="0.597" stop-color="#1894E9"/>
<stop offset="0.717" stop-color="#0085E6"/>
<stop offset="1" stop-color="#3AA8EE"/>
</radialGradient>
<radialGradient id="paint2_radial_268_307" cx="0" cy="0" r="1" gradientUnits="userSpaceOnUse" gradientTransform="translate(21.7298 -1.02313) scale(37.1681 37.1681)">
<stop stop-color="#27ABF6"/>
<stop offset="0.341" stop-color="#0F88E5"/>
<stop offset="0.593" stop-color="#0072DB"/>
<stop offset="0.661" stop-color="#0B7EDF"/>
<stop offset="0.782" stop-color="#279DE9"/>
<stop offset="0.943" stop-color="#54CEF9"/>
<stop offset="1" stop-color="#66E2FF"/>
</radialGradient>
<linearGradient id="paint3_linear_268_307" x1="12.3699" y1="10.3863" x2="17.8949" y2="22.4831" gradientUnits="userSpaceOnUse">
<stop stop-color="#008DF2"/>
<stop offset="1" stop-color="#0068C9"/>
</linearGradient>
<linearGradient id="paint4_linear_268_307" x1="13.3217" y1="11.8319" x2="18.0673" y2="20.0031" gradientUnits="userSpaceOnUse">
<stop stop-color="#008DF2"/>
<stop offset="1" stop-color="#0068C9"/>
</linearGradient>
<linearGradient id="paint5_linear_268_307" x1="10.3838" y1="11.325" x2="17.2913" y2="23.8881" gradientUnits="userSpaceOnUse">
<stop stop-color="#008DF2"/>
<stop offset="1" stop-color="#0068C9"/>
</linearGradient>
<radialGradient id="paint6_radial_268_307" cx="0" cy="0" r="1" gradientUnits="userSpaceOnUse" gradientTransform="translate(17.1925 1.10937) scale(30.5156 30.5156)">
<stop stop-color="#27ABF6"/>
<stop offset="0.341" stop-color="#0F88E5"/>
<stop offset="0.593" stop-color="#0072DB"/>
<stop offset="0.661" stop-color="#0B7EDF"/>
<stop offset="0.782" stop-color="#279DE9"/>
<stop offset="0.943" stop-color="#54CEF9"/>
<stop offset="1" stop-color="#66E2FF"/>
</radialGradient>
<radialGradient id="paint7_radial_268_307" cx="0" cy="0" r="1" gradientUnits="userSpaceOnUse" gradientTransform="translate(13.1167 6.11251) scale(18.2031)">
<stop stop-color="#27ABF6"/>
<stop offset="0.341" stop-color="#0F88E5"/>
<stop offset="0.593" stop-color="#0072DB"/>
<stop offset="0.661" stop-color="#0B7EDF"/>
<stop offset="0.782" stop-color="#279DE9"/>
<stop offset="0.943" stop-color="#54CEF9"/>
<stop offset="1" stop-color="#66E2FF"/>
</radialGradient>
<linearGradient id="paint8_linear_268_307" x1="12.8112" y1="12.5713" x2="17.9695" y2="21.2882" gradientUnits="userSpaceOnUse">
<stop stop-color="#008DF2"/>
<stop offset="1" stop-color="#0068C9"/>
</linearGradient>
<linearGradient id="paint9_linear_268_307" x1="22.0616" y1="11.0187" x2="17.1346" y2="3.45736" gradientUnits="userSpaceOnUse">
<stop stop-color="#E3F4FF"/>
<stop offset="1" stop-color="#E3F4FF" stop-opacity="0"/>
</linearGradient>
<linearGradient id="paint10_linear_268_307" x1="21.1332" y1="9.83319" x2="18.5031" y2="6.47655" gradientUnits="userSpaceOnUse">
<stop stop-color="#E3F4FF"/>
<stop offset="1" stop-color="#E3F4FF" stop-opacity="0"/>
</linearGradient>
<radialGradient id="paint11_radial_268_307" cx="0" cy="0" r="1" gradientUnits="userSpaceOnUse" gradientTransform="translate(20.3218 12.1875) scale(1.5625)">
<stop stop-color="#E3F4FF"/>
<stop offset="1" stop-color="#E3F4FF" stop-opacity="0"/>
</radialGradient>
<radialGradient id="paint12_radial_268_307" cx="0" cy="0" r="1" gradientUnits="userSpaceOnUse" gradientTransform="translate(20.6343 13.75) scale(1.25)">
<stop stop-color="#E3F4FF"/>
<stop offset="1" stop-color="#E3F4FF" stop-opacity="0"/>
</radialGradient>
<radialGradient id="paint13_radial_268_307" cx="0" cy="0" r="1" gradientUnits="userSpaceOnUse" gradientTransform="translate(22.5093 13.125) scale(1.25)">
<stop stop-color="#E3F4FF"/>
<stop offset="1" stop-color="#E3F4FF" stop-opacity="0"/>
</radialGradient>
<radialGradient id="paint14_radial_268_307" cx="0" cy="0" r="1" gradientUnits="userSpaceOnUse" gradientTransform="translate(21.5837 12.0619) scale(1.59688)">
<stop stop-color="#E3F4FF"/>
<stop offset="1" stop-color="#E3F4FF" stop-opacity="0"/>
</radialGradient>
<radialGradient id="paint15_radial_268_307" cx="0" cy="0" r="1" gradientUnits="userSpaceOnUse" gradientTransform="translate(22.1968 9.0625) scale(0.9375)">
<stop stop-color="#E3F4FF"/>
<stop offset="1" stop-color="#E3F4FF" stop-opacity="0"/>
</radialGradient>
<radialGradient id="paint16_radial_268_307" cx="0" cy="0" r="1" gradientUnits="userSpaceOnUse" gradientTransform="translate(23.1343 10) scale(1.25)">
<stop stop-color="#E3F4FF"/>
<stop offset="1" stop-color="#E3F4FF" stop-opacity="0"/>
</radialGradient>
<radialGradient id="paint17_radial_268_307" cx="0" cy="0" r="1" gradientUnits="userSpaceOnUse" gradientTransform="translate(19.6968 10.9375) scale(0.9375)">
<stop stop-color="#E3F4FF"/>
<stop offset="1" stop-color="#E3F4FF" stop-opacity="0"/>
</radialGradient>
<radialGradient id="paint18_radial_268_307" cx="0" cy="0" r="1" gradientUnits="userSpaceOnUse" gradientTransform="translate(21.2593 10) scale(1.875)">
<stop stop-color="#E3F4FF"/>
<stop offset="1" stop-color="#E3F4FF" stop-opacity="0"/>
</radialGradient>
<radialGradient id="paint19_radial_268_307" cx="0" cy="0" r="1" gradientUnits="userSpaceOnUse" gradientTransform="translate(23.1343 11.25) scale(1.25)">
<stop stop-color="#E3F4FF"/>
<stop offset="1" stop-color="#E3F4FF" stop-opacity="0"/>
</radialGradient>
</defs>
</svg>
